<svg width="20" height="20" viewBox="0 0 20 20" fill="none" xmlns="http://www.w3.org/2000/svg">
<path d="M9.96416 0C4.51613 0 0 4.55622 0 10.2148C0 14.6975 2.86738 18.5923 6.81004 19.9151C7.31183 19.9886 7.4552 19.6946 7.4552 19.4007V17.637C4.6595 18.2249 4.08602 16.2407 4.08602 16.2407C3.65591 15.0649 3.01075 14.771 3.01075 14.771C2.07885 14.1096 3.08244 14.1831 3.08244 14.1831C4.08602 14.2566 4.58781 15.2119 4.58781 15.2119C5.44803 16.7551 6.9534 16.3142 7.4552 16.0937C7.52688 15.4324 7.81362 14.9914 8.10036 14.6975C5.87814 14.4035 3.58423 13.5952 3.58423 9.62685C3.58423 8.52454 3.94265 7.5692 4.58781 6.90782C4.58781 6.68736 4.22939 5.65853 4.73118 4.26227C4.73118 4.26227 5.5914 3.96832 7.4552 5.29109C8.24373 5.07063 9.10394 4.92366 9.96416 4.92366C10.8244 4.92366 11.6846 5.07063 12.4731 5.29109C14.4086 3.96832 15.1971 4.26227 15.1971 4.26227C15.7706 5.65853 15.4122 6.68736 15.2688 6.98131C15.914 7.71618 16.2724 8.59803 16.2724 9.70034C16.2724 13.5952 13.9068 14.477 11.6846 14.771C12.043 15.0649 12.3297 15.7263 12.3297 16.6816V19.4742C12.3297 19.7681 12.5448 20.0621 13.0466 19.9886C17.1326 18.5923 20 14.771 20 10.2148C20 4.55622 15.4839 0 9.96416 0Z" fill="#868686"/>
</svg>
