<svg width="20" height="20" viewBox="0 0 20 20" fill="none" xmlns="http://www.w3.org/2000/svg">
<path d="M15.9216 10.0787C15.9216 13.3858 13.2549 16.1417 9.88235 16.1417C6.5098 16.1417 3.92157 13.3858 3.92157 10.0787C3.92157 9.68504 3.92157 9.29134 4.07843 8.89764H0V16.9291C0 18.6614 1.41176 20 3.05882 20H16.7059C18.4314 20 19.7647 18.5827 19.7647 16.9291V8.8189H15.7647C15.7647 9.2126 15.9216 9.6063 15.9216 10.0787ZM16.7059 0H3.05882C1.33333 0 0 1.41732 0 3.07087V6.45669H5.01961C6.03922 4.88189 7.84314 3.85827 9.96078 3.85827C12 3.85827 13.7255 4.88189 14.902 6.45669H20V3.07087C19.7647 1.41732 18.3529 0 16.7059 0ZM18.2745 3.93701C18.2745 4.33071 18.0392 4.56693 17.6471 4.56693H16C15.6863 4.56693 15.3725 4.33071 15.3725 3.93701V2.28346C15.3725 1.88976 15.6078 1.65354 16 1.65354H17.6471C17.9608 1.65354 18.2745 1.88976 18.2745 2.28346V3.93701ZM13.5686 10.0787C13.5686 8.11024 11.9216 6.37795 9.88235 6.37795C7.84314 6.37795 6.19608 8.0315 6.19608 10.0787C6.19608 12.126 7.84314 13.7795 9.88235 13.7795C11.9216 13.7795 13.5686 12.0472 13.5686 10.0787Z" fill="#868686"/>
</svg>
